# xmcd CD database file
#
# Track frame offsets:
#	150
#	22653
#	48943
#	73170
#	99283
#	113458
#	128835
#	149935
#	171218
#
# Disc length: 2660 seconds
#
# Revision: 3
# Processed by: cddbd v1.5.2PL0 Copyright (c) Steve Scherf et al.
# Submitted via: CDex 1.51
#
DISCID=750a6209
DTITLE=Olivia Newton-John - Banks Of The Ohio
DYEAR=1992
DGENRE=Country
TTITLE0=Take Me Home Country Road
TTITLE1=Me And Bobby McGee
TTITLE2=Help Me Make It Through The Night
TTITLE3=Angel In The Morning
TTITLE4=Just A Little Too Much
TTITLE5=A Love Song
TTITLE6=If Not For You
TTITLE7=Banks Of The Ohio
TTITLE8=If I Could Read Your Mind
EXTD=YEAR: 1992
EXTT0=
EXTT1=
EXTT2=
EXTT3=
EXTT4=
EXTT5=
EXTT6=
EXTT7=
EXTT8=
PLAYORDER=
